<mxfile host="app.diagrams.net" modified="2020-09-22T07:08:58.731Z" agent="5.0 (Windows NT 10.0; Win64; x64) AppleWebKit/537.36 (KHTML, like Gecko) Chrome/72.0.3626.119 Safari/537.36" etag="vyB_-VVGnYoe0rwl0N19" version="13.7.3" type="github">
  <diagram id="kjNfu8Xx3Lx_zaVhcjmf" name="Page-1">
    <mxGraphModel dx="2249" dy="713" grid="1" gridSize="10" guides="1" tooltips="1" connect="1" arrows="1" fold="1" page="1" pageScale="1" pageWidth="827" pageHeight="1169" math="0" shadow="0">
      <root>
        <mxCell id="0" />
        <mxCell id="1" parent="0" />
        <mxCell id="IUPC3U68XSw1S8rsNcTR-1" value="" style="rounded=0;whiteSpace=wrap;html=1;strokeColor=#FFF1D1;" parent="1" vertex="1">
          <mxGeometry x="-7.5" y="890" width="280" height="130" as="geometry" />
        </mxCell>
        <mxCell id="WEtxMpCwlHjmA936dEfq-33" style="edgeStyle=orthogonalEdgeStyle;rounded=0;orthogonalLoop=1;jettySize=auto;html=1;entryX=0;entryY=0.5;entryDx=0;entryDy=0;entryPerimeter=0;dashed=1;dashPattern=1 2;" parent="1" source="WEtxMpCwlHjmA936dEfq-6" target="bneU8rVOEiQd-OsVHFBt-23" edge="1">
          <mxGeometry relative="1" as="geometry" />
        </mxCell>
        <mxCell id="WEtxMpCwlHjmA936dEfq-36" style="edgeStyle=orthogonalEdgeStyle;rounded=0;orthogonalLoop=1;jettySize=auto;html=1;entryX=0.5;entryY=0;entryDx=0;entryDy=0;shape=flexArrow;strokeColor=#B5739D;" parent="1" source="WEtxMpCwlHjmA936dEfq-6" target="IUPC3U68XSw1S8rsNcTR-1" edge="1">
          <mxGeometry relative="1" as="geometry" />
        </mxCell>
        <mxCell id="WEtxMpCwlHjmA936dEfq-38" style="edgeStyle=orthogonalEdgeStyle;rounded=0;orthogonalLoop=1;jettySize=auto;html=1;strokeColor=#0000FF;shape=flexArrow;" parent="1" source="WEtxMpCwlHjmA936dEfq-6" target="bneU8rVOEiQd-OsVHFBt-24" edge="1">
          <mxGeometry relative="1" as="geometry">
            <Array as="points">
              <mxPoint x="210" y="800" />
              <mxPoint x="620" y="800" />
            </Array>
          </mxGeometry>
        </mxCell>
        <mxCell id="WEtxMpCwlHjmA936dEfq-6" value="&lt;b&gt;&lt;font style=&quot;font-size: 16px&quot; color=&quot;#ff0000&quot;&gt;node1&lt;/font&gt;&lt;/b&gt;&lt;br&gt;&lt;br&gt;&lt;br&gt;&lt;br&gt;&lt;br&gt;&lt;br&gt;&lt;br&gt;" style="rounded=0;whiteSpace=wrap;html=1;" parent="1" vertex="1">
          <mxGeometry x="10" y="590" width="245" height="140" as="geometry" />
        </mxCell>
        <mxCell id="bneU8rVOEiQd-OsVHFBt-6" style="edgeStyle=orthogonalEdgeStyle;rounded=0;orthogonalLoop=1;jettySize=auto;html=1;entryX=0;entryY=0.5;entryDx=0;entryDy=0;entryPerimeter=0;" parent="1" source="bneU8rVOEiQd-OsVHFBt-2" target="bneU8rVOEiQd-OsVHFBt-5" edge="1">
          <mxGeometry relative="1" as="geometry">
            <Array as="points">
              <mxPoint x="170" y="140" />
              <mxPoint x="170" y="300" />
            </Array>
          </mxGeometry>
        </mxCell>
        <mxCell id="bneU8rVOEiQd-OsVHFBt-8" value="&lt;span&gt;&lt;p class=&quot;ql-long-110962&quot; style=&quot;line-height: 1.7 ; margin-bottom: 0pt ; margin-top: 0pt ; font-size: 11pt ; color: #494949&quot;&gt;&lt;span class=&quot;ql-author-110962 ql-font-simsun&quot; style=&quot;font-family: &amp;#34;simsun&amp;#34; , &amp;#34;stsong&amp;#34; , , , , , sans-serif&quot;&gt;pbqz.greendh.com:80&lt;/span&gt;&lt;/p&gt;&lt;/span&gt;" style="edgeLabel;html=1;align=center;verticalAlign=middle;resizable=0;points=[];" parent="bneU8rVOEiQd-OsVHFBt-6" vertex="1" connectable="0">
          <mxGeometry x="-0.1765" relative="1" as="geometry">
            <mxPoint as="offset" />
          </mxGeometry>
        </mxCell>
        <mxCell id="bneU8rVOEiQd-OsVHFBt-2" value="手机端" style="outlineConnect=0;fontColor=#232F3E;gradientColor=none;strokeColor=#232F3E;fillColor=#ffffff;dashed=0;verticalLabelPosition=bottom;verticalAlign=top;align=center;html=1;fontSize=12;fontStyle=0;aspect=fixed;shape=mxgraph.aws4.resourceIcon;resIcon=mxgraph.aws4.mobile_client;" parent="1" vertex="1">
          <mxGeometry x="60" y="110" width="60" height="60" as="geometry" />
        </mxCell>
        <mxCell id="bneU8rVOEiQd-OsVHFBt-7" style="edgeStyle=orthogonalEdgeStyle;rounded=0;orthogonalLoop=1;jettySize=auto;html=1;entryX=1;entryY=0.5;entryDx=0;entryDy=0;entryPerimeter=0;" parent="1" source="bneU8rVOEiQd-OsVHFBt-3" target="bneU8rVOEiQd-OsVHFBt-5" edge="1">
          <mxGeometry relative="1" as="geometry">
            <Array as="points">
              <mxPoint x="510" y="145" />
              <mxPoint x="510" y="300" />
            </Array>
          </mxGeometry>
        </mxCell>
        <mxCell id="bneU8rVOEiQd-OsVHFBt-9" value="&lt;span&gt;&lt;p class=&quot;ql-long-110962&quot; style=&quot;line-height: 1.7 ; margin-bottom: 0pt ; margin-top: 0pt ; font-size: 11pt ; color: #494949&quot;&gt;&lt;span class=&quot;ql-author-110962 ql-font-simsun&quot; style=&quot;font-family: &amp;#34;simsun&amp;#34; , &amp;#34;stsong&amp;#34; , , , , , sans-serif&quot;&gt;pbqz.greendh.com:80&lt;/span&gt;&lt;/p&gt;&lt;/span&gt;" style="edgeLabel;html=1;align=center;verticalAlign=middle;resizable=0;points=[];" parent="bneU8rVOEiQd-OsVHFBt-7" vertex="1" connectable="0">
          <mxGeometry x="-0.3556" y="-2" relative="1" as="geometry">
            <mxPoint x="2" y="29" as="offset" />
          </mxGeometry>
        </mxCell>
        <mxCell id="bneU8rVOEiQd-OsVHFBt-3" value="电脑端" style="fontColor=#0066CC;verticalAlign=top;verticalLabelPosition=bottom;labelPosition=center;align=center;html=1;outlineConnect=0;fillColor=#CCCCCC;strokeColor=#6881B3;gradientColor=none;gradientDirection=north;strokeWidth=2;shape=mxgraph.networks.pc;" parent="1" vertex="1">
          <mxGeometry x="560" y="110" width="100" height="70" as="geometry" />
        </mxCell>
        <mxCell id="WEtxMpCwlHjmA936dEfq-31" style="edgeStyle=orthogonalEdgeStyle;rounded=0;orthogonalLoop=1;jettySize=auto;html=1;" parent="1" source="bneU8rVOEiQd-OsVHFBt-4" target="WEtxMpCwlHjmA936dEfq-6" edge="1">
          <mxGeometry relative="1" as="geometry" />
        </mxCell>
        <mxCell id="WEtxMpCwlHjmA936dEfq-32" style="edgeStyle=orthogonalEdgeStyle;rounded=0;orthogonalLoop=1;jettySize=auto;html=1;" parent="1" source="bneU8rVOEiQd-OsVHFBt-4" target="WEtxMpCwlHjmA936dEfq-7" edge="1">
          <mxGeometry relative="1" as="geometry" />
        </mxCell>
        <mxCell id="bneU8rVOEiQd-OsVHFBt-4" value="nginx服务路由" style="shape=image;html=1;verticalAlign=top;verticalLabelPosition=bottom;labelBackgroundColor=#ffffff;imageAspect=0;aspect=fixed;image=https://cdn4.iconfinder.com/data/icons/logos-brands-5/24/nginx-128.png" parent="1" vertex="1">
          <mxGeometry x="308" y="430" width="70" height="70" as="geometry" />
        </mxCell>
        <mxCell id="bneU8rVOEiQd-OsVHFBt-10" style="edgeStyle=orthogonalEdgeStyle;rounded=0;orthogonalLoop=1;jettySize=auto;html=1;" parent="1" source="bneU8rVOEiQd-OsVHFBt-5" target="bneU8rVOEiQd-OsVHFBt-4" edge="1">
          <mxGeometry relative="1" as="geometry" />
        </mxCell>
        <mxCell id="bneU8rVOEiQd-OsVHFBt-5" value="硬件防火墙" style="fontColor=#0066CC;verticalAlign=top;verticalLabelPosition=bottom;labelPosition=center;align=center;html=1;outlineConnect=0;fillColor=#CCCCCC;strokeColor=#6881B3;gradientColor=none;gradientDirection=north;strokeWidth=2;shape=mxgraph.networks.firewall;" parent="1" vertex="1">
          <mxGeometry x="300" y="260" width="86" height="80" as="geometry" />
        </mxCell>
        <mxCell id="bneU8rVOEiQd-OsVHFBt-11" value="&lt;br&gt;&lt;br&gt;&lt;br&gt;&lt;br&gt;&lt;br&gt;&lt;br&gt;手机端服务&amp;nbsp; &amp;nbsp; &amp;nbsp;&lt;span&gt;&lt;p class=&quot;ql-long-110962&quot; style=&quot;line-height: 1.7 ; margin-bottom: 0pt ; margin-top: 0pt ; font-size: 11pt ; color: #494949&quot;&gt;&lt;span class=&quot;ql-author-110962 ql-font-simsun&quot; style=&quot;font-family: &amp;#34;simsun&amp;#34; , &amp;#34;stsong&amp;#34; , , , , , sans-serif&quot;&gt;172.16.80.167&lt;/span&gt;&lt;/p&gt;&lt;/span&gt;" style="html=1;dashed=0;whitespace=wrap;fillColor=#2875E2;strokeColor=#ffffff;points=[[0.005,0.63,0],[0.1,0.2,0],[0.9,0.2,0],[0.5,0,0],[0.995,0.63,0],[0.72,0.99,0],[0.5,1,0],[0.28,0.99,0]];shape=mxgraph.kubernetes.icon;prIcon=api" parent="1" vertex="1">
          <mxGeometry x="45" y="610" width="50" height="48" as="geometry" />
        </mxCell>
        <mxCell id="bneU8rVOEiQd-OsVHFBt-12" value="&lt;br&gt;&lt;br&gt;&lt;br&gt;&lt;br&gt;&lt;br&gt;&lt;br&gt;电脑端服务&amp;nbsp; &amp;nbsp; &amp;nbsp;&lt;span&gt;&lt;p class=&quot;ql-long-110962&quot; style=&quot;line-height: 1.7 ; margin-bottom: 0pt ; margin-top: 0pt ; font-size: 11pt ; color: #494949&quot;&gt;&lt;span class=&quot;ql-author-110962 ql-font-simsun&quot; style=&quot;font-family: &amp;#34;simsun&amp;#34; , &amp;#34;stsong&amp;#34; , , , , , sans-serif&quot;&gt;172.16.80.167&lt;/span&gt;&lt;/p&gt;&lt;/span&gt;" style="html=1;dashed=0;whitespace=wrap;fillColor=#2875E2;strokeColor=#ffffff;points=[[0.005,0.63,0],[0.1,0.2,0],[0.9,0.2,0],[0.5,0,0],[0.995,0.63,0],[0.72,0.99,0],[0.5,1,0],[0.28,0.99,0]];shape=mxgraph.kubernetes.icon;prIcon=api" parent="1" vertex="1">
          <mxGeometry x="165" y="610" width="50" height="48" as="geometry" />
        </mxCell>
        <mxCell id="bneU8rVOEiQd-OsVHFBt-22" value="&lt;font color=&quot;#ff0000&quot;&gt;mysql&lt;br&gt;主&lt;br&gt;172.16.80.168&lt;/font&gt;" style="strokeWidth=2;html=1;shape=mxgraph.flowchart.database;whiteSpace=wrap;" parent="1" vertex="1">
          <mxGeometry x="20" y="920" width="60" height="60" as="geometry" />
        </mxCell>
        <mxCell id="bneU8rVOEiQd-OsVHFBt-23" value="redis&lt;br&gt;&lt;span style=&quot;color: rgb(73 , 73 , 73) ; font-size: 14.6667px&quot;&gt;172.16.80.167&lt;/span&gt;" style="strokeWidth=2;html=1;shape=mxgraph.flowchart.database;whiteSpace=wrap;" parent="1" vertex="1">
          <mxGeometry x="313" y="630" width="60" height="60" as="geometry" />
        </mxCell>
        <mxCell id="bneU8rVOEiQd-OsVHFBt-24" value="mongodb&lt;br&gt;&lt;span style=&quot;color: rgb(73 , 73 , 73) ; font-size: 14.6667px&quot;&gt;172.16.80.167&lt;/span&gt;" style="strokeWidth=2;html=1;shape=mxgraph.flowchart.database;whiteSpace=wrap;" parent="1" vertex="1">
          <mxGeometry x="590" y="910" width="60" height="60" as="geometry" />
        </mxCell>
        <mxCell id="WEtxMpCwlHjmA936dEfq-4" value="&lt;font color=&quot;#ff3333&quot;&gt;mysql&lt;br&gt;备&lt;br&gt;172.16.80.xxx&lt;/font&gt;" style="strokeWidth=2;html=1;shape=mxgraph.flowchart.database;whiteSpace=wrap;" parent="1" vertex="1">
          <mxGeometry x="160" y="920" width="60" height="60" as="geometry" />
        </mxCell>
        <mxCell id="WEtxMpCwlHjmA936dEfq-34" style="edgeStyle=orthogonalEdgeStyle;rounded=0;orthogonalLoop=1;jettySize=auto;html=1;entryX=1;entryY=0.5;entryDx=0;entryDy=0;entryPerimeter=0;dashed=1;dashPattern=1 2;" parent="1" source="WEtxMpCwlHjmA936dEfq-7" target="bneU8rVOEiQd-OsVHFBt-23" edge="1">
          <mxGeometry relative="1" as="geometry" />
        </mxCell>
        <mxCell id="WEtxMpCwlHjmA936dEfq-37" style="edgeStyle=orthogonalEdgeStyle;rounded=0;orthogonalLoop=1;jettySize=auto;html=1;shape=flexArrow;strokeColor=#B5739D;" parent="1" source="WEtxMpCwlHjmA936dEfq-7" target="IUPC3U68XSw1S8rsNcTR-1" edge="1">
          <mxGeometry relative="1" as="geometry">
            <Array as="points">
              <mxPoint x="548" y="770" />
              <mxPoint x="133" y="770" />
            </Array>
          </mxGeometry>
        </mxCell>
        <mxCell id="WEtxMpCwlHjmA936dEfq-40" value="内网访问数据库" style="edgeLabel;html=1;align=center;verticalAlign=middle;resizable=0;points=[];" parent="WEtxMpCwlHjmA936dEfq-37" vertex="1" connectable="0">
          <mxGeometry x="0.725" y="1" relative="1" as="geometry">
            <mxPoint as="offset" />
          </mxGeometry>
        </mxCell>
        <mxCell id="WEtxMpCwlHjmA936dEfq-39" style="edgeStyle=orthogonalEdgeStyle;rounded=0;orthogonalLoop=1;jettySize=auto;html=1;entryX=0.5;entryY=0;entryDx=0;entryDy=0;entryPerimeter=0;strokeColor=#0000CC;shape=flexArrow;" parent="1" source="WEtxMpCwlHjmA936dEfq-7" target="bneU8rVOEiQd-OsVHFBt-24" edge="1">
          <mxGeometry relative="1" as="geometry">
            <Array as="points">
              <mxPoint x="620" y="770" />
              <mxPoint x="620" y="770" />
            </Array>
          </mxGeometry>
        </mxCell>
        <mxCell id="WEtxMpCwlHjmA936dEfq-41" value="内网访问mongodb" style="edgeLabel;html=1;align=center;verticalAlign=middle;resizable=0;points=[];" parent="WEtxMpCwlHjmA936dEfq-39" vertex="1" connectable="0">
          <mxGeometry x="0.2556" y="4" relative="1" as="geometry">
            <mxPoint x="-4" y="-23" as="offset" />
          </mxGeometry>
        </mxCell>
        <mxCell id="WEtxMpCwlHjmA936dEfq-7" value="&lt;b&gt;&lt;font style=&quot;font-size: 16px&quot; color=&quot;#ff0000&quot;&gt;node2&lt;/font&gt;&lt;/b&gt;&lt;br&gt;&lt;br&gt;&lt;br&gt;&lt;br&gt;&lt;br&gt;&lt;br&gt;&lt;br&gt;" style="rounded=0;whiteSpace=wrap;html=1;" parent="1" vertex="1">
          <mxGeometry x="425" y="590" width="245" height="140" as="geometry" />
        </mxCell>
        <mxCell id="WEtxMpCwlHjmA936dEfq-8" value="&lt;br&gt;&lt;br&gt;&lt;br&gt;&lt;br&gt;&lt;br&gt;&lt;br&gt;手机端服务&amp;nbsp; &amp;nbsp; &amp;nbsp;&lt;span&gt;&lt;p class=&quot;ql-long-110962&quot; style=&quot;line-height: 1.7 ; margin-bottom: 0pt ; margin-top: 0pt ; font-size: 11pt ; color: #494949&quot;&gt;&lt;span class=&quot;ql-author-110962 ql-font-simsun&quot; style=&quot;font-family: &amp;#34;simsun&amp;#34; , &amp;#34;stsong&amp;#34; , , , , , sans-serif&quot;&gt;172.16.80.xxx&lt;/span&gt;&lt;/p&gt;&lt;/span&gt;" style="html=1;dashed=0;whitespace=wrap;fillColor=#2875E2;strokeColor=#ffffff;points=[[0.005,0.63,0],[0.1,0.2,0],[0.9,0.2,0],[0.5,0,0],[0.995,0.63,0],[0.72,0.99,0],[0.5,1,0],[0.28,0.99,0]];shape=mxgraph.kubernetes.icon;prIcon=api" parent="1" vertex="1">
          <mxGeometry x="460" y="610" width="50" height="48" as="geometry" />
        </mxCell>
        <mxCell id="WEtxMpCwlHjmA936dEfq-9" value="&lt;br&gt;&lt;br&gt;&lt;br&gt;&lt;br&gt;&lt;br&gt;&lt;br&gt;电脑端服务&amp;nbsp; &amp;nbsp; &amp;nbsp;&lt;span&gt;&lt;p class=&quot;ql-long-110962&quot; style=&quot;line-height: 1.7 ; margin-bottom: 0pt ; margin-top: 0pt ; font-size: 11pt ; color: #494949&quot;&gt;&lt;span class=&quot;ql-author-110962 ql-font-simsun&quot; style=&quot;font-family: &amp;#34;simsun&amp;#34; , &amp;#34;stsong&amp;#34; , , , , , sans-serif&quot;&gt;172.16.80.xxx&lt;/span&gt;&lt;/p&gt;&lt;/span&gt;" style="html=1;dashed=0;whitespace=wrap;fillColor=#2875E2;strokeColor=#ffffff;points=[[0.005,0.63,0],[0.1,0.2,0],[0.9,0.2,0],[0.5,0,0],[0.995,0.63,0],[0.72,0.99,0],[0.5,1,0],[0.28,0.99,0]];shape=mxgraph.kubernetes.icon;prIcon=api" parent="1" vertex="1">
          <mxGeometry x="580" y="610" width="50" height="48" as="geometry" />
        </mxCell>
        <mxCell id="WEtxMpCwlHjmA936dEfq-42" value="&lt;h1&gt;应用负载&lt;/h1&gt;&lt;p&gt;需要服务器两台&lt;/p&gt;&lt;p&gt;已有 172.16.80.167&lt;/p&gt;&lt;p&gt;&lt;font color=&quot;#ff3333&quot;&gt;还缺一台&lt;/font&gt;&lt;/p&gt;&lt;p&gt;&lt;b&gt;&lt;font style=&quot;font-size: 22px&quot;&gt;数据库主备&lt;/font&gt;&lt;/b&gt;&lt;/p&gt;&lt;p&gt;需要两台服务器&lt;/p&gt;&lt;p&gt;已有 172.16.80.168&lt;/p&gt;&lt;p&gt;&lt;font color=&quot;#ff3333&quot;&gt;还缺一台&lt;/font&gt;&lt;/p&gt;&lt;p&gt;&lt;font color=&quot;#ff3333&quot;&gt;&lt;br&gt;&lt;/font&gt;&lt;/p&gt;&lt;p&gt;redis与mongodb单节点部署&lt;/p&gt;&lt;p&gt;&lt;br&gt;&lt;/p&gt;" style="text;html=1;strokeColor=#d6b656;fillColor=#fff2cc;spacing=5;spacingTop=-20;whiteSpace=wrap;overflow=hidden;rounded=0;" parent="1" vertex="1">
          <mxGeometry x="-230" y="110" width="200" height="300" as="geometry" />
        </mxCell>
      </root>
    </mxGraphModel>
  </diagram>
</mxfile>
